<?xml version="1.0" encoding="utf-8"?>
<svg width="832px" height="832px" viewBox="0 0 832 832" version="1.1" xmlns:xlink="http://www.w3.org/1999/xlink" xmlns="http://www.w3.org/2000/svg">
  <defs>
    <linearGradient gradientUnits="objectBoundingBox" x1="0.5" y1="0" x2="0.5" y2="1" id="gradient_1">
      <stop offset="0%" stop-color="#FFFFFF" />
      <stop offset="100%" stop-color="#E0AAFF" />
    </linearGradient>
    <path d="M832 0L832 0L832 832L0 832L0 0L832 0Z" id="path_1" />
    <path d="M467.669 410L467.669 288.75C489.466 271.406 509.309 260.234 531.731 260.234C552.513 260.234 566.263 277.188 566.263 296.094L566.263 410L598.294 410L598.294 297.969C598.294 252.266 569.466 229.844 535.872 229.844C515.091 229.844 486.575 242.656 466.419 257.969L461.263 230.781L435.716 230.781L435.716 410L467.669 410ZM264.109 230.781L232.156 230.781L232.156 342.812C232.156 383.125 257.078 410.938 304.421 410.938C325.906 410.938 348.953 396.875 369.734 380.859L375.515 410L401.062 410L401.062 230.781L369.109 230.781L369.109 349.531C346.374 368.438 327.468 380.547 304.421 380.547C275.046 380.547 264.109 360.391 264.109 342.812L264.109 230.781ZM274.049 603.35L402.172 533.172Q402.509 532.987 402.84 532.792Q403.171 532.596 403.495 532.389Q403.819 532.182 404.136 531.965Q404.453 531.747 404.762 531.519Q405.072 531.291 405.374 531.053Q405.676 530.815 405.969 530.567Q406.263 530.318 406.548 530.061Q406.833 529.803 407.11 529.536Q407.386 529.268 407.653 528.992Q407.921 528.716 408.178 528.431Q408.436 528.145 408.685 527.852Q408.933 527.558 409.171 527.257Q409.41 526.955 409.638 526.645Q409.866 526.336 410.083 526.019Q410.301 525.702 410.508 525.378Q410.715 525.054 410.911 524.723Q411.107 524.392 411.292 524.055Q411.476 523.718 411.65 523.375Q411.823 523.032 411.985 522.683Q412.147 522.335 412.297 521.981Q412.447 521.627 412.585 521.268Q412.724 520.909 412.85 520.546Q412.976 520.183 413.09 519.816Q413.204 519.448 413.305 519.078Q413.407 518.707 413.496 518.333Q413.585 517.959 413.662 517.582Q413.738 517.205 413.802 516.826Q413.866 516.447 413.917 516.066Q413.969 515.685 414.007 515.303Q414.046 514.92 414.071 514.536Q414.097 514.153 414.11 513.769Q414.123 513.384 414.123 513Q414.123 512.616 414.11 512.231Q414.097 511.847 414.071 511.463Q414.046 511.08 414.007 510.697Q413.969 510.315 413.917 509.934Q413.866 509.553 413.802 509.174Q413.738 508.795 413.662 508.418Q413.585 508.041 413.496 507.667Q413.407 507.293 413.305 506.922Q413.204 506.552 413.09 506.184Q412.976 505.817 412.85 505.454Q412.724 505.091 412.585 504.732Q412.447 504.373 412.297 504.019Q412.147 503.665 411.985 503.317Q411.823 502.968 411.65 502.625Q411.476 502.282 411.292 501.945Q411.107 501.607 410.911 501.277Q410.715 500.946 410.508 500.622Q410.301 500.298 410.083 499.981Q409.866 499.664 409.638 499.355Q409.41 499.045 409.171 498.743Q408.933 498.442 408.685 498.148Q408.436 497.855 408.178 497.569Q407.921 497.284 407.653 497.008Q407.386 496.732 407.11 496.465Q406.833 496.197 406.548 495.939Q406.263 495.682 405.969 495.433Q405.676 495.185 405.374 494.947Q405.072 494.709 404.762 494.481Q404.453 494.253 404.136 494.035Q403.819 493.818 403.495 493.611Q403.171 493.404 402.84 493.208Q402.509 493.012 402.172 492.828L274.049 422.65Q273.396 422.292 272.721 421.977Q272.046 421.663 271.352 421.392Q270.658 421.122 269.948 420.897Q269.238 420.672 268.514 420.493Q267.791 420.314 267.058 420.183Q266.325 420.052 265.585 419.968Q264.845 419.884 264.101 419.849Q263.357 419.813 262.612 419.825Q261.867 419.838 261.125 419.899Q260.383 419.96 259.646 420.068Q258.909 420.177 258.18 420.333Q257.452 420.489 256.735 420.692Q256.019 420.895 255.317 421.143Q254.615 421.392 253.93 421.686Q253.246 421.98 252.582 422.317Q251.918 422.655 251.277 423.034Q250.636 423.414 250.021 423.834Q249.406 424.254 248.82 424.714Q248.233 425.173 247.678 425.669Q247.122 426.165 246.6 426.696Q246.078 427.228 245.591 427.791Q245.104 428.355 244.655 428.949Q244.206 429.543 243.796 430.165Q243.386 430.787 243.017 431.434Q242.648 432.082 242.322 432.751Q241.996 433.421 241.714 434.11Q241.432 434.8 241.195 435.506Q240.958 436.212 240.767 436.932Q240.576 437.652 240.433 438.383Q240.289 439.114 240.193 439.852Q240.096 440.591 240.048 441.334Q240 442.077 240 442.822L240 583.178Q240 583.923 240.048 584.666Q240.096 585.409 240.193 586.148Q240.289 586.886 240.433 587.617Q240.576 588.348 240.767 589.068Q240.958 589.788 241.195 590.494Q241.432 591.2 241.714 591.89Q241.996 592.579 242.322 593.249Q242.648 593.919 243.017 594.566Q243.386 595.213 243.796 595.835Q244.206 596.457 244.655 597.051Q245.104 597.645 245.591 598.209Q246.078 598.772 246.6 599.304Q247.122 599.835 247.678 600.331Q248.233 600.827 248.82 601.286Q249.406 601.745 250.021 602.166Q250.636 602.586 251.277 602.966Q251.918 603.345 252.582 603.683Q253.246 604.02 253.93 604.314Q254.615 604.608 255.317 604.856Q256.019 605.105 256.735 605.308Q257.452 605.511 258.18 605.667Q258.909 605.823 259.646 605.932Q260.382 606.04 261.125 606.101Q261.867 606.162 262.612 606.174Q263.357 606.187 264.101 606.151Q264.845 606.116 265.585 606.032Q266.325 605.948 267.058 605.817Q267.791 605.685 268.514 605.507Q269.238 605.328 269.948 605.103Q270.658 604.878 271.352 604.608Q272.046 604.337 272.721 604.023Q273.396 603.708 274.049 603.35ZM432.536 549.047C432.536 581.078 455.27 606.938 493.317 606.938C525.661 606.938 546.754 593.5 564.333 579.438L569.489 606L595.114 606L595.114 498.812C595.114 448.891 563.083 425.844 518.942 425.844C487.536 425.844 469.958 433.188 448.239 445.688L448.239 477.016L473.786 477.016L475.739 464.203C488.551 457.484 499.411 455.609 518.942 455.609C542.301 455.609 563.083 468.422 563.083 492.719L563.083 503.891C545.504 495.297 525.036 491.156 493.317 491.156C455.27 491.156 432.536 517.016 432.536 549.047ZM463.551 549.047C463.551 534.281 472.223 519.594 496.52 519.594C521.833 519.594 546.129 524.047 563.083 532.406L563.083 548.109C545.817 564.75 525.036 578.5 499.723 578.5C475.426 578.5 463.551 563.734 463.551 549.047Z" id="path_2" />
    <clipPath id="clip_1">
      <use xlink:href="#path_1" clip-rule="evenodd" fill-rule="evenodd" />
    </clipPath>
    <clipPath id="clip_2">
      <use xlink:href="#path_2" />
    </clipPath>
  </defs>
  <g id="logo">
    <path d="M832 0L832 0L832 832L0 832L0 0L832 0Z" id="logo" fill="none" stroke="none" />
    <path d="M95.0681 209.017L496.696 40.5775Q499.064 39.5846 501.477 38.7097Q503.891 37.8348 506.345 37.08Q508.799 36.3253 511.287 35.6925Q513.775 35.0598 516.291 34.5506Q518.808 34.0414 521.346 33.6569Q523.884 33.2725 526.439 33.0138Q528.993 32.7551 531.557 32.6228Q534.121 32.4904 536.688 32.4847Q539.255 32.479 541.82 32.6Q544.385 32.721 546.94 32.9684Q549.495 33.2158 552.035 33.589Q554.575 33.9621 557.094 34.4602Q559.613 34.9582 562.103 35.5799Q564.594 36.2017 567.052 36.9455Q569.509 37.6894 571.926 38.5536Q574.344 39.4178 576.716 40.4002Q579.088 41.3826 581.408 42.4809Q583.729 43.5792 585.992 44.7906Q588.256 46.0021 590.457 47.3237Q592.658 48.6454 594.791 50.074Q596.924 51.5026 598.984 53.0348Q601.044 54.5669 603.026 56.1989Q605.008 57.8308 606.907 59.5585Q608.806 61.2863 610.617 63.1056Q612.429 64.9249 614.148 66.8314Q615.868 68.7379 617.491 70.727Q619.115 72.716 620.638 74.7827Q622.161 76.8493 623.58 78.9887Q624.999 81.128 626.312 83.3347Q627.624 85.5415 628.825 87.8103Q630.027 90.0791 631.115 92.4044Q632.203 94.7298 633.175 97.1059L792.966 487.698Q793.928 490.048 794.773 492.442Q795.619 494.836 796.346 497.268Q797.074 499.7 797.682 502.165Q798.29 504.63 798.777 507.122Q799.264 509.613 799.629 512.126Q799.994 514.638 800.236 517.165Q800.478 519.692 800.597 522.229Q800.715 524.764 800.709 527.303Q800.704 529.842 800.575 532.378Q800.445 534.913 800.192 537.439Q799.939 539.965 799.563 542.476Q799.187 544.987 798.689 547.476Q798.191 549.966 797.573 552.428Q796.954 554.89 796.215 557.319Q795.477 559.748 794.621 562.138Q793.765 564.529 792.794 566.874Q791.822 569.22 790.738 571.515Q789.653 573.81 788.457 576.05Q787.262 578.29 785.958 580.468Q784.655 582.647 783.247 584.76Q781.839 586.872 780.329 588.913Q778.82 590.955 777.213 592.92Q775.605 594.885 773.904 596.769Q772.203 598.654 770.411 600.453Q768.62 602.252 766.743 603.962Q764.867 605.671 762.908 607.287Q760.95 608.903 758.916 610.422Q756.881 611.94 754.775 613.358Q752.669 614.775 750.496 616.088Q748.323 617.401 746.089 618.607Q743.854 619.812 741.564 620.907Q739.273 622.002 736.932 622.984L335.304 791.423Q332.937 792.416 330.523 793.291Q328.109 794.166 325.656 794.921Q323.202 795.675 320.714 796.308Q318.225 796.941 315.709 797.45Q313.193 797.959 310.654 798.344Q308.116 798.728 305.562 798.987Q303.007 799.245 300.443 799.378Q297.88 799.51 295.312 799.516Q292.745 799.521 290.18 799.401Q287.616 799.279 285.061 799.032Q282.505 798.785 279.965 798.412Q277.425 798.038 274.906 797.54Q272.388 797.042 269.897 796.421Q267.406 795.799 264.949 795.055Q262.492 794.311 260.074 793.447Q257.657 792.583 255.285 791.6Q252.913 790.618 250.592 789.52Q248.272 788.421 246.008 787.21Q243.744 785.998 241.543 784.677Q239.342 783.355 237.209 781.926Q235.076 780.498 233.016 778.966Q230.956 777.434 228.974 775.802Q226.992 774.17 225.093 772.442Q223.194 770.714 221.383 768.895Q219.571 767.076 217.852 765.169Q216.132 763.263 214.509 761.273Q212.886 759.284 211.363 757.218Q209.84 755.151 208.42 753.012Q207.001 750.872 205.689 748.666Q204.377 746.459 203.175 744.19Q201.974 741.921 200.885 739.596Q199.797 737.271 198.825 734.895L39.0341 344.302Q38.0728 341.953 37.2274 339.559Q36.3819 337.165 35.6542 334.733Q34.9265 332.301 34.3184 329.836Q33.7103 327.371 33.2231 324.879Q32.736 322.388 32.371 319.875Q32.0061 317.363 31.7641 314.836Q31.5221 312.308 31.4038 309.772Q31.2854 307.236 31.291 304.697Q31.2965 302.159 31.4259 299.623Q31.5553 297.088 31.8082 294.562Q32.0612 292.035 32.4371 289.525Q32.813 287.014 33.311 284.524Q33.809 282.035 34.4278 279.573Q35.0467 277.111 35.7849 274.682Q36.5232 272.253 37.3791 269.862Q38.235 267.472 39.2065 265.127Q40.178 262.781 41.2628 260.486Q42.3476 258.19 43.543 255.951Q44.7385 253.711 46.0419 251.532Q47.3453 249.354 48.7534 247.241Q50.1615 245.129 51.671 243.087Q53.1805 241.046 54.7878 239.081Q56.3951 237.116 58.0964 235.231Q59.7977 233.347 61.5889 231.548Q63.3801 229.749 65.2569 228.039Q67.1338 226.329 69.0918 224.713Q71.0498 223.097 73.0844 221.579Q75.119 220.06 77.2252 218.643Q79.3314 217.226 81.5043 215.913Q83.6772 214.6 85.9115 213.394Q88.1459 212.189 90.4364 211.094Q92.7269 209.999 95.0681 209.017L95.0681 209.017Z" id="Rectangle" fill="url(#gradient_1)" fill-rule="evenodd" stroke="none" clip-path="url(#clip_1)" />
    <g id="un---a-Union" clip-path="url(#clip_1)">
      <g clip-path="url(#clip_2)">
        <use xlink:href="#path_2" fill="none" stroke="#000000" stroke-width="62" stroke-linecap="round" stroke-linejoin="round" />
      </g>
    </g>
  </g>
</svg>